<?xml version="1.0" encoding="UTF-8"?>
<svg width="112px" height="114px" viewBox="0 0 112 114" version="1.1" xmlns="http://www.w3.org/2000/svg" xmlns:xlink="http://www.w3.org/1999/xlink">
    <!-- Generator: Sketch 46.1 (44463) - http://www.bohemiancoding.com/sketch -->
    <title>np_tesla-roadster_168908_000000@1x</title>
    <desc>Created with Sketch.</desc>
    <defs></defs>
    <g id="Page-1" stroke="none" stroke-width="1" fill="none" fill-rule="evenodd">
        <g id="np_tesla-roadster_168908_000000" transform="translate(10.000000, 27.000000)" fill-rule="nonzero" fill="#000000">
            <path d="M90,33.395 C90,33.395 89.83203,39.4145 89.37891,43.563 C88.92579,47.7153 87.49221,55.262 87.49221,55.262 C87.49221,55.262 86.81252,57.0745 81.53131,57.6018 C76.24611,58.13305 55.86731,59.0354 45.00031,59.0354 C34.13331,59.0354 13.75431,58.12915 8.47331,57.6018 C3.18811,57.07446 2.51241,55.262 2.51241,55.262 C2.51241,55.262 1.07881,47.7151 0.62571,43.563 C0.16868,39.4146 0.00071,33.395 0.00071,33.395 C0.00071,33.395 0.42649,27.5356 0.56712,26.8559 C0.70774,26.17621 4.44602,22.5239 5.37962,21.8481 C6.31321,21.16841 9.53192,20.02 9.53192,20.02 L9.85223,18.813 L8.45773,17.88722 L7.64523,17.926282 C7.64523,17.926282 6.32493,18.813002 4.41863,18.813002 C2.51233,18.813002 1.66473,18.680192 1.00453,18.340342 C0.34047,18.000502 0.26234,16.945842 0.26234,16.246542 C0.26234,15.547322 0.203746,15.453572 0.47328,14.734842 C0.7389,14.020002 1.90688,13.961402 3.66078,13.961402 C5.41468,13.961402 6.28578,14.133272 6.81308,14.582492 C7.34042,15.035612 7.62167,15.410612 7.62167,15.410612 L8.43417,15.410612 L8.508388,15.164522 L11.488888,15.332492 C11.488888,15.332492 12.395138,14.031692 13.356088,13.578592 C14.317028,13.125472 15.676388,13.125472 15.676388,13.125472 C15.676388,13.125472 18.508388,9.051272 19.524088,7.297372 C20.543588,5.543472 21.902988,4.297372 22.809288,3.504372 C23.715538,2.711402 28.695988,0.957472 44.997288,0.957472 C61.298288,0.957472 66.278288,2.711372 67.185288,3.504372 C68.091538,4.297342 69.450888,5.543472 70.466488,7.297372 C71.485988,9.051272 74.314188,13.125472 74.314188,13.125472 C74.314188,13.125472 75.673588,13.125472 76.634488,13.578592 C77.595428,14.031712 78.501688,15.332492 78.501688,15.332492 L81.482188,15.164522 L81.560313,15.410612 L82.368903,15.410612 C82.368903,15.410612 82.650153,15.031702 83.181403,14.582492 C83.708743,14.129372 84.579803,13.961402 86.333703,13.961402 C88.087603,13.961402 89.259503,14.019995 89.521203,14.734842 C89.786823,15.453592 89.728233,15.547342 89.728233,16.246542 C89.728233,16.945762 89.654015,18.000442 88.993863,18.340342 C88.333703,18.680182 87.482163,18.813002 85.579763,18.813002 C83.673563,18.813002 82.353163,17.926282 82.353163,17.926282 L81.540663,17.88722 L80.146163,18.813 L80.462573,20.02 C80.462573,20.02 83.677373,21.1723 84.614873,21.8481 C85.548463,22.52779 89.282873,26.1801 89.427373,26.8559 C89.575813,27.53559 90.001593,33.395 90.001593,33.395 L90,33.395 Z M66.168,33.90672 C66.168,36.17232 67.3008,36.85202 69.4492,36.39502 C71.5976,35.9419 74.0898,35.37552 77.2617,34.76612 C80.4336,34.15672 81.3359,32.20752 82.1289,30.50832 C82.92187,28.80912 83.4883,26.66062 83.4883,25.64112 C83.4883,24.62162 79.3008,24.84815 75.7891,25.64112 C72.2813,26.43409 67.5235,28.02002 67.5235,28.02002 C66.73444,29.03952 66.168,31.64112 66.168,33.90672 L66.168,33.90672 Z M22.02,28.02002 C22.02,28.02002 17.2661,26.43412 13.7544,25.64112 C10.2466,24.84815 6.0552,24.62162 6.0552,25.64112 C6.0552,26.66062 6.62161,28.80912 7.4146,30.50832 C8.20757,32.20752 9.1138,34.15282 12.2818,34.76612 C15.4537,35.3755 17.942,35.94582 20.0943,36.39502 C22.2466,36.84814 23.3755,36.16846 23.3755,33.90672 C23.379406,31.64112 22.813,29.03952 22.02,28.02002 Z M69.454,45.60602 C66.7352,43.79352 59.9423,44.69977 45.001,44.69977 C30.0597,44.69977 23.267,43.79352 20.548,45.60602 C17.829,47.41852 15.716,48.47322 17.0753,51.19192 C18.4346,53.91062 20.0948,54.51222 27.4893,55.11382 C34.8838,55.71929 36.3955,55.71929 45.0013,55.71929 C53.6071,55.71929 55.1143,55.71929 62.5133,55.11382 C69.9078,54.50835 71.5719,53.90682 72.9273,51.19192 C74.2828,48.47312 72.16949,47.41462 69.4546,45.60602 L69.454,45.60602 Z M70.5868,10.24702 C68.8329,8.49312 68.8876,7.64152 64.247,6.62592 C59.6064,5.60642 56.3212,5.26652 45.001,5.26652 C33.6808,5.26652 30.396,5.60636 25.755,6.62592 C21.114,7.64548 21.1691,8.49312 19.4152,10.24702 C17.6613,12.00092 14.0949,20.77402 14.0949,20.77402 C14.0949,20.77402 15.5676,21.56699 18.7355,21.34043 C21.9074,21.11387 39.3405,22.65293 45.0015,22.58653 C50.6617,22.652936 68.0955,21.11383 71.2675,21.34043 C74.4355,21.56699 75.9081,20.77402 75.9081,20.77402 C75.9081,20.77402 72.3417,12.00062 70.5878,10.24702 L70.5868,10.24702 Z" id="Shape"></path>
        </g>
    </g>
</svg>